<svg xmlns="http://www.w3.org/2000/svg" width="512" height="512" viewBox="0 0 512 512">
  <defs>
    <linearGradient id="bg" x1="0" y1="0" x2="1" y2="1">
      <stop offset="0%" stop-color="#D9B158"/>
      <stop offset="100%" stop-color="#AC7649"/>
    </linearGradient>
  </defs>
  <rect width="512" height="512" rx="64" fill="#241609"/>
  <rect x="20" y="20" width="472" height="472" rx="56" fill="url(#bg)" opacity=".06"/>
  <!-- Círculo exterior (lente) -->
  <circle cx="256" cy="220" r="140" fill="none" stroke="#D9B158" stroke-width="8"/>
  <circle cx="256" cy="220" r="92" fill="none" stroke="#D9B158" stroke-width="5" opacity=".5"/>
  <!-- Centro de la lente -->
  <circle cx="256" cy="220" r="44" fill="#D9B158" opacity=".3"/>
  <circle cx="256" cy="220" r="16" fill="#D9B158"/>
  <!-- Documento interior -->
  <rect x="128" y="165" width="256" height="215" rx="14" fill="#F4E0AB" opacity=".92"/>
  <rect x="150" y="188" width="160" height="10" rx="4" fill="#241609" opacity=".35"/>
  <rect x="150" y="214" width="212" height="8" rx="3" fill="#241609" opacity=".18"/>
  <rect x="150" y="236" width="192" height="8" rx="3" fill="#241609" opacity=".18"/>
  <rect x="150" y="258" width="134" height="8" rx="3" fill="#241609" opacity=".18"/>
  <rect x="150" y="296" width="92" height="8" rx="3" fill="#241609" opacity=".35"/>
  <rect x="150" y="316" width="74" height="8" rx="3" fill="#241609" opacity=".28"/>
  <!-- Línea de código de barras QR -->
  <rect x="320" y="188" width="42" height="42" rx="4" fill="#241609" opacity=".15"/>
  <!-- Círculos de alineación -->
  <circle cx="176" cy="168" r="14" fill="none" stroke="#0f8" stroke-width="5" opacity=".65"/>
  <circle cx="336" cy="168" r="14" fill="none" stroke="#0f8" stroke-width="5" opacity=".65"/>
  <circle cx="176" cy="376" r="14" fill="none" stroke="#0f8" stroke-width="5" opacity=".65"/>
  <circle cx="336" cy="376" r="14" fill="none" stroke="#0f8" stroke-width="5" opacity=".65"/>
  <!-- Marca π -->
  <text x="256" y="455" text-anchor="middle" font-family="serif" font-size="42" font-weight="700" fill="#D9B158" opacity=".55">πNAD</text>
</svg>
